<svg id="Layer_1" data-name="Layer 1" xmlns="http://www.w3.org/2000/svg" width="700" height="700" viewBox="0 0 700 700"><defs><style>.cls-1{fill:#003cc4;}</style></defs><path class="cls-1" d="M376.59,18.64c-.36,8.54-5.31,13.56-13,13.23s-12.24-5.73-11.88-14.27S357,4,364.7,4.37,376.94,10.1,376.59,18.64Zm-19.3-.81c-.23,5.55,2.21,9.06,6.46,9.24s7-3.12,7.22-8.67-2.22-9-6.47-9.23S357.52,12.29,357.29,17.83Z"/><path class="cls-1" d="M399.51,29.94,399,34.57l-17.74-2.15,3.17-26.15,5.4.65-2.61,21.52Z"/><path class="cls-1" d="M403.21,35.41l4.58-25.95,5.36.95-4.59,25.94Z"/><path class="cls-1" d="M420,38.68,418,11.17l5.4,1.27.72,10.69c.27,3.71.37,7.46.31,11.13l.07,0c1.58-3.32,3.38-6.62,5.24-9.83l5.4-9.25,5.4,1.27-14,23.77Z"/><path class="cls-1" d="M437.82,43.23,445.27,18l5.22,1.54L443,44.77Z"/><path class="cls-1" d="M455.79,42.1l-4.14,5.35-5.36-1.93,17.54-21.68,6.89,2.49-.34,27.88L465,52.28l.27-6.75Zm9.76-3.28c.14-3.57.35-7.19.67-10.7l-.07,0c-2,2.9-4.11,5.83-6.27,8.67l-1.12,1.45,6.72,2.42Z"/><path class="cls-1" d="M505.08,71l6-11.64q2.26-4.38,4.73-8.67l-.07,0c-2.23,2.47-4.6,5-6.95,7.32L499,67.85,493.48,65l2.39-13.72c.57-3.29,1.22-6.66,1.95-9.91l-.07,0q-2.07,4.48-4.34,8.88l-6,11.63-4.63-2.39,12.09-23.4,7.76,4-2.17,12.5c-.57,3.29-1.3,6.62-2.15,9.8l.07,0c2.1-2.54,4.4-5.06,6.75-7.43l8.93-9,7.76,4-12.09,23.4Z"/><path class="cls-1" d="M542.11,78.7c-4.68,7.15-11.5,8.92-18,4.68S516.56,72.19,521.24,65s11.5-8.92,18-4.69S546.79,71.54,542.11,78.7ZM526,68.12c-3,4.64-2.74,8.91.82,11.24s7.59.9,10.63-3.74,2.74-8.91-.82-11.24S529,63.47,526,68.12Z"/><path class="cls-1" d="M564.69,89.69l-4.35-3.39c1.68-2.15,1.41-4.39-1-6.23-1.89-1.48-3.91-1.55-5-.21-1.25,1.61-.41,3.11,2.22,6.48,3.16,4,5.75,7.67,2.22,12.19-3.07,3.94-8.38,4-13.23.24-5.16-4-6.4-9.12-2.71-13.84l4.43,3.45c-2,2.51-1.61,4.89,1,7,2.19,1.7,4.38,1.77,5.66.14,1.43-1.84.36-3.24-2-6.29-3.14-4-6-7.75-2.42-12.3,2.84-3.65,7.92-3.73,12.47-.18C567.33,80.77,568.17,85.23,564.69,89.69Z"/><path class="cls-1" d="M570,119l7.69-8.36-7.94-7.32-7.7,8.36-4-3.69,17.85-19.38,4,3.68-7,7.6,8,7.32,7-7.6,4,3.69L574,122.63Z"/><path class="cls-1" d="M604.2,135.81c-6.32,5.75-13.37,5.76-18.57,0s-4.53-12.73,1.79-18.48,13.37-5.75,18.58,0S610.52,130.06,604.2,135.81Zm-13-14.29c-4.11,3.73-4.88,7.94-2,11.09s7.12,2.77,11.23-1,4.88-7.94,2-11.09S595.31,117.79,591.21,121.52Z"/><path class="cls-1" d="M612.3,160.06l-3.69,2.86-10.94-14.13,20.82-16.13,3.34,4.3-17.15,13.27Z"/><path class="cls-1" d="M624.66,187.35l11.05-7q4.17-2.65,8.45-5.12l0-.06c-3.17,1-6.47,2-9.69,2.83L621,181.57l-3.34-5.24,9-10.66c2.15-2.55,4.42-5.13,6.67-7.58l0-.06q-4,2.83-8.21,5.49l-11,7-2.8-4.4L633.39,152l4.69,7.36-8.16,9.72c-2.15,2.55-4.45,5.06-6.79,7.39l0,.06c3.09-1.14,6.35-2.16,9.57-3L645,170.24l4.68,7.37-22.22,14.14Z"/><path class="cls-1" d="M664,240.52c-8,3.12-14.54.61-17.36-6.59s.31-13.52,8.27-16.63,14.54-.61,17.36,6.59S671.91,237.4,664,240.52Zm-7-18c-5.17,2-7.39,5.67-5.84,9.63s5.66,5.14,10.83,3.11,7.39-5.67,5.84-9.63S662.08,220.51,656.91,222.54Z"/><path class="cls-1" d="M662.84,266.05l-4.46,1.35-5.18-17.11,25.22-7.62,1.58,5.2-20.76,6.28Z"/><path class="cls-1" d="M659.32,271.65l25.6-6.23,1.28,5.29-25.6,6.22Z"/><path class="cls-1" d="M663.05,288.28l24.42-12.83,1,5.46-9.51,5c-3.29,1.73-6.68,3.34-10.07,4.75l0,.08c3.67.11,7.41.43,11.1.84l10.65,1.23,1,5.45L664.29,295Z"/><path class="cls-1" d="M666.07,306.49l26.13-3.34.68,5.39-26.12,3.34Z"/><path class="cls-1" d="M674.33,322.47l-6.57-1.63-.38-5.68,26.9,7.32.5,7.31L669.12,340.7l-.39-5.69,6.28-2.47Zm6.93,7.61c3.32-1.3,6.72-2.57,10.06-3.69v-.07c-3.45-.66-7-1.42-10.46-2.26l-1.77-.43.48,7.12Z"/><path class="cls-1" d="M667.83,379.25l13.07.79q4.94.29,9.85.81v-.08c-3.17-1-6.4-2.19-9.51-3.38l-13-5,.37-6.21,13.51-3.38c3.24-.8,6.58-1.57,9.85-2.23v-.07q-5-.07-9.88-.37L669,359.38l.31-5.21,26.3,1.58-.52,8.71-12.31,3.08c-3.24.81-6.58,1.5-9.83,2v.07c3.17.9,6.41,2,9.53,3.17l11.85,4.53-.52,8.72-26.31-1.58Z"/><path class="cls-1" d="M675.82,416.18c-8.44-1.37-12.82-6.88-11.58-14.51s7.15-11.47,15.59-10.1,12.82,6.89,11.58,14.52S684.25,417.56,675.82,416.18Zm3.1-19.06c-5.47-.89-9.25,1.12-9.93,5.32s2.26,7.3,7.73,8.19,9.26-1.11,9.94-5.31S684.4,398,678.92,397.12Z"/><path class="cls-1" d="M674.9,441.32l1.34-5.35c2.65.66,4.58-.49,5.31-3.4.59-2.33-.17-4.2-1.82-4.61-2-.5-3,.88-5,4.65-2.38,4.52-4.68,8.36-10.25,7-4.84-1.21-7.06-6-5.57-12,1.59-6.35,5.74-9.54,11.56-8.09L669.08,425c-3.08-.78-5.12.51-5.94,3.77-.67,2.7.15,4.73,2.16,5.24,2.26.56,3.11-1,5-4.37,2.42-4.51,4.67-8.6,10.27-7.19,4.48,1.12,6.61,5.73,5.2,11.33C684.12,440.12,680.39,442.69,674.9,441.32Z"/><path class="cls-1" d="M650.29,458,661,461.69l3.49-10.22-10.76-3.66,1.76-5.15,24.93,8.49-1.75,5.15L668.94,453l-3.49,10.23,9.77,3.33-1.75,5.14-24.93-8.49Z"/><path class="cls-1" d="M648.66,496.11c-7.82-3.47-10.66-9.91-7.52-17s9.82-9.28,17.64-5.81,10.65,9.92,7.51,17S656.47,499.58,648.66,496.11Zm7.83-17.65c-5.07-2.25-9.23-1.26-11,2.62s.34,7.64,5.41,9.89,9.23,1.27,11-2.62S661.56,480.71,656.49,478.46Z"/><path class="cls-1" d="M629.71,513.28l-4.09-2.23,8.52-15.7,23.15,12.57-2.59,4.78-19.06-10.35Z"/><path class="cls-1" d="M609.68,535.58l10.88,7.3q4.11,2.75,8.09,5.68l0-.06c-2.2-2.5-4.4-5.13-6.49-7.73l-8.71-10.87,3.46-5.17,13.37,3.92c3.2.94,6.47,2,9.62,3.06l0-.06q-4.23-2.56-8.33-5.32L620.76,519l2.91-4.33,21.89,14.66-4.86,7.26-12.18-3.57c-3.2-.94-6.43-2-9.5-3.24l0,.06c2.28,2.37,4.53,5,6.61,7.55l7.94,9.9-4.86,7.26-21.9-14.67Z"/><path class="cls-1" d="M576.86,593c-6.06-6-6.42-13.06-1-18.54s12.48-5.17,18.55.85,6.42,13.06,1,18.55S582.92,599,576.86,593Zm13.61-13.7c-3.93-3.91-8.17-4.47-11.17-1.45s-2.41,7.25,1.52,11.16,8.18,4.48,11.18,1.46S594.41,583.16,590.47,579.25Z"/><path class="cls-1" d="M553.06,602.26l-3-3.54,13.56-11.64,17.16,20-4.12,3.54-14.13-16.44Z"/><path class="cls-1" d="M546.52,601.31l16.07,20.88-4.31,3.31-16.07-20.88Z"/><path class="cls-1" d="M532.8,611.48l21.63,17.12-4.58,3.14-8.38-6.68c-2.93-2.31-5.77-4.75-8.44-7.28l-.06,0c1.39,3.41,2.61,7,3.73,10.5l3.2,10.23-4.58,3.14-8.14-26.36Z"/><path class="cls-1" d="M517.41,621.61l13.65,22.53L526.41,647l-13.66-22.53Z"/><path class="cls-1" d="M506.13,635.65,505,629l5-2.66,4.21,27.57-6.48,3.42-20.38-19,5-2.66,4.81,4.75ZM502,645.08c2.53,2.51,5.07,5.1,7.45,7.7l.06,0c-.8-3.43-1.54-7-2.18-10.49l-.32-1.79-6.32,3.33Z"/><path class="cls-1" d="M451.62,652.64l4.55,12.28q1.71,4.62,3.23,9.33l.06,0c-.32-3.32-.56-6.74-.73-10.07l-.7-13.9,5.83-2.16,8.54,11c2,2.64,4.09,5.39,6,8.11l.07,0q-1.92-4.56-3.64-9.18l-4.55-12.28,4.89-1.82,9.15,24.7-8.18,3-7.78-10c-2-2.64-4-5.42-5.8-8.19l-.07,0c.46,3.26.78,6.65.95,10l.63,12.67-8.19,3-9.15-24.7Z"/><path class="cls-1" d="M421,674.81c-2.13-8.28,1.16-14.51,8.65-16.44s13.37,2,15.5,10.23S444,683.1,436.46,685,423.09,683.08,421,674.81Zm18.7-4.81c-1.38-5.38-4.73-8-8.85-7s-5.78,5-4.4,10.38,4.74,8,8.86,7S441.05,675.37,439.66,670Z"/><path class="cls-1" d="M397.62,684.07l5.43-.92c.46,2.7,2.3,4,5.25,3.5,2.37-.41,3.78-1.85,3.49-3.53-.34-2-2-2.39-6.28-2.72-5.09-.37-9.53-.92-10.5-6.58-.84-4.92,2.69-8.9,8.74-9.93,6.46-1.1,11.05,1.42,12.06,7.33l-5.54.94c-.54-3.13-2.53-4.48-5.85-3.92-2.74.47-4.27,2-3.92,4.09.39,2.29,2.14,2.45,6,2.77,5.09.4,9.74.81,10.71,6.5.78,4.56-2.59,8.36-8.28,9.33C402.43,692,398.57,689.65,397.62,684.07Z"/><path class="cls-1" d="M372.42,668.27l1,11.32,10.77-.93-1-11.32,5.42-.47,2.27,26.25-5.42.47-.89-10.28-10.76.93.89,10.28-5.42.47L367,668.74Z"/><path class="cls-1" d="M336.74,682c.13-8.54,4.95-13.68,12.69-13.56s12.38,5.42,12.24,14-4.95,13.68-12.69,13.56S336.6,690.52,336.74,682Zm19.31.32c.09-5.56-2.45-9-6.7-9.07s-6.9,3.29-7,8.84,2.45,9,6.7,9.07S356,687.83,356.05,682.29Z"/><path class="cls-1" d="M313.55,671.79l.38-4.64,17.81,1.43-2.11,26.25-5.42-.43,1.73-21.61Z"/><path class="cls-1" d="M285,662.54l-2.24,12.91q-.85,4.86-1.92,9.69l.08,0c1.39-3,2.9-6.11,4.43-9.07l6.4-12.37,6.12,1.07,1.84,13.8c.44,3.31.82,6.71,1.11,10h.07q.63-4.89,1.48-9.77l2.25-12.9,5.14.89-4.52,26-8.61-1.5L295,678.74c-.44-3.31-.75-6.71-.89-10H294c-1.24,3-2.68,6.14-4.21,9.11L284,689.1l-8.6-1.5,4.51-26Z"/><path class="cls-1" d="M219.27,655.71c3.06-8,9.36-11.15,16.58-8.38s9.77,9.35,6.7,17.33S233.19,675.81,226,673,216.2,663.69,219.27,655.71Zm18,6.93c2-5.18.8-9.29-3.18-10.81s-7.61.72-9.6,5.9-.79,9.29,3.18,10.81S235.31,667.82,237.3,662.64Z"/><path class="cls-1" d="M201.19,637.68l2-4.2,16.12,7.71L208,665,203,662.6l9.36-19.55Z"/><path class="cls-1" d="M199.41,631.3l-12.66,23.11L182,651.79l12.65-23.11Z"/><path class="cls-1" d="M184.58,622.84l-7,26.69-4.71-2.94,2.74-10.36c.93-3.6,2-7.19,3.27-10.65l-.06,0c-2.56,2.64-5.32,5.19-8.11,7.64l-8.09,7-4.71-2.93,20.86-18Z"/><path class="cls-1" d="M169.13,612.82,154,634.38l-4.45-3.12,15.13-21.57Z"/><path class="cls-1" d="M151.75,608.15l5.62-3.75,4.46,3.54-23.54,14.95-5.73-4.56L141.78,592l4.47,3.54-2.42,6.31Zm-10.3,0c-1.28,3.33-2.63,6.7-4,9.91l.06.05c2.81-2.11,5.75-4.22,8.71-6.21l1.52-1-5.6-4.44Z"/><path class="cls-1" d="M114.21,565.08l-9.4,9.12c-2.36,2.29-4.78,4.54-7.24,6.72l.05.06c2.9-1.64,5.93-3.24,8.91-4.74L119,570l4.33,4.46-6.62,12.25c-1.59,2.94-3.28,5.92-5,8.77l0,.06c2.26-2.41,4.57-4.75,6.93-7l9.4-9.12,3.64,3.75L112.8,601.46l-6.08-6.27,6-11.16c1.59-2.94,3.33-5.87,5.15-8.61l-.05-.06c-2.8,1.74-5.78,3.4-8.76,4.9L97.75,586l-6.08-6.27,18.9-18.35Z"/><path class="cls-1" d="M81.53,546c6.7-5.3,13.73-4.82,18.53,1.25s3.64,13-3.07,18.31-13.73,4.83-18.53-1.24S74.82,551.34,81.53,546Zm12,15.15c4.35-3.44,5.41-7.58,2.77-10.92S89.37,547,85,550.46,79.6,558,82.24,561.38,89.15,564.64,93.51,561.19Z"/><path class="cls-1" d="M63.58,528.43l3,4.59c-2.28,1.52-2.73,3.72-1.07,6.22,1.33,2,3.22,2.7,4.63,1.76,1.7-1.12,1.37-2.82,0-6.84-1.73-4.81-3-9.1,1.75-12.27,4.16-2.76,9.23-1.15,12.63,4,3.62,5.46,3.18,10.68-1.82,14l-3.11-4.69c2.66-1.76,3.08-4.13,1.22-6.93-1.54-2.31-3.6-3.08-5.32-1.93-1.95,1.29-1.37,3-.11,6.6,1.7,4.82,3.21,9.24-1.6,12.43-3.86,2.56-8.7,1-11.89-3.79C58.25,536.05,58.86,531.56,63.58,528.43Z"/><path class="cls-1" d="M67.82,499l-9.95,5.48L63.09,514l10-5.48,2.62,4.76L52.58,526,50,521.19l9-5-5.21-9.47-9,5L42.12,507,65.2,494.25Z"/><path class="cls-1" d="M40.76,472.15c7.82-3.44,14.5-1.21,17.62,5.87s.24,13.52-7.59,17-14.5,1.2-17.62-5.88S32.93,475.59,40.76,472.15Zm7.77,17.68c5.08-2.23,7.16-6,5.44-9.87S48.1,475.06,43,477.3s-7.16,6-5.44,9.87S43.45,492.07,48.53,489.83Z"/><path class="cls-1" d="M40.82,446.57l4.4-1.53,5.87,16.88L26.2,470.57l-1.79-5.14,20.49-7.12Z"/><path class="cls-1" d="M37.84,416.76l-12.72,3.13q-4.8,1.19-9.65,2.14l0,.08c3.33.05,6.76.2,10.08.41l13.9.89,1.49,6-11.91,7.23c-2.85,1.73-5.82,3.45-8.74,5.05l0,.07q4.74-1.4,9.54-2.58l12.72-3.12,1.25,5.06-25.59,6.29L16.17,439,27,432.38c2.85-1.73,5.84-3.38,8.79-4.83v-.07c-3.3.09-6.71,0-10-.2l-12.66-.81L11,418l25.58-6.29Z"/><path class="cls-1" d="M17.62,353.83c8.54-.41,14,4.07,14.35,11.79s-4.61,12.71-13.15,13.12S4.85,374.67,4.47,367,9.08,354.24,17.62,353.83Zm.93,19.29c5.54-.27,8.82-3,8.61-7.27s-3.73-6.67-9.27-6.4-8.82,3-8.61,7.27S13,373.39,18.55,373.12Z"/><path class="cls-1" d="M26.79,330l4.66.14L30.92,348l-26.34-.78.16-5.44,21.68.64Z"/><path class="cls-1" d="M31.89,325.8,5.65,323.6l.45-5.42,26.25,2.2Z"/><path class="cls-1" d="M33.62,308.82,6.4,313.27l.77-5.5,10.58-1.69c3.67-.61,7.4-1.06,11.06-1.33v-.07c-3.45-1.27-6.9-2.76-10.27-4.32l-9.71-4.53.77-5.5,25,11.75Z"/><path class="cls-1" d="M36.51,290.6l-25.85-5.09,1.05-5.34,25.85,5.1Z"/><path class="cls-1" d="M33.73,272.81l5.71,3.63L38,282l-23.2-15.47,1.84-7.09,27.8-2.22L43,262.68l-6.75.35Zm-4.16-9.42c-3.57.19-7.19.31-10.71.32l0,.07c3.07,1.71,6.18,3.56,9.21,5.45l1.54,1,1.8-6.92Z"/><path class="cls-1" d="M57.94,221.1,45.8,216.19q-4.57-1.86-9.07-3.92l0,.07c2.66,2,5.35,4.13,7.93,6.24l10.74,8.86L53,233.2l-13.88-1.11c-3.33-.26-6.74-.61-10-1l0,.07q4.67,1.65,9.24,3.5l12.14,4.92-1.95,4.83L24.09,234.5l3.28-8.1,12.65,1c3.32.27,6.71.68,10,1.24l0-.07c-2.72-1.86-5.44-3.92-8-6l-9.79-8.07,3.28-8.09,24.42,9.89Z"/><path class="cls-1" d="M62.22,183.52c7.55,4,9.94,10.63,6.32,17.47s-10.45,8.57-18,4.56-9.94-10.63-6.32-17.46S54.67,179.52,62.22,183.52Zm-9,17.06c4.91,2.6,9.13,1.91,11.12-1.85s.2-7.64-4.7-10.24-9.13-1.91-11.12,1.85S48.27,198,53.17,200.58Z"/><path class="cls-1" d="M71.12,160l-3,4.64c-2.31-1.48-4.51-1-6.12,1.52-1.3,2-1.19,4,.24,4.95,1.72,1.1,3.14.12,6.25-2.81,3.7-3.51,7.11-6.42,11.94-3.32,4.2,2.7,4.76,8,1.44,13.15-3.54,5.51-8.49,7.21-13.54,4l3-4.73c2.68,1.72,5,1.15,6.84-1.68,1.5-2.33,1.37-4.53-.38-5.65-2-1.26-3.25-.06-6.08,2.56-3.74,3.49-7.17,6.65-12,3.53-3.89-2.5-4.42-7.55-1.31-12.4C62,158.21,66.36,157,71.12,160Z"/><path class="cls-1" d="M99.77,152.05l-9-6.9-6.57,8.58,9,6.9L89.9,165,69,149l3.3-4.32,8.2,6.27L87,142.32l-8.2-6.27,3.31-4.32,20.92,16Z"/><path class="cls-1" d="M113.47,116.45c6.3,5.77,7,12.79,1.72,18.49s-12.27,5.67-18.57-.11-7-12.79-1.73-18.49S107.16,110.67,113.47,116.45Zm-13,14.24c4.09,3.75,8.35,4.14,11.23,1s2.11-7.35-2-11.1-8.36-4.14-11.23-1S96.33,126.94,100.42,130.69Z"/><path class="cls-1" d="M136.88,106.2l3.17,3.41L127,121.79l-18-19.27,4-3.71,14.78,15.86Z"/><path class="cls-1" d="M162.91,91.41l-8-10.36q-3-3.92-5.87-8l-.06,0c1.3,3.07,2.55,6.26,3.71,9.39l4.81,13.06-4.91,3.81-11.43-8c-2.74-1.91-5.52-3.93-8.16-6l-.06,0q3.21,3.78,6.22,7.68l8,10.36L143,106.77,126.92,85.93l6.91-5.34,10.42,7.24c2.73,1.91,5.45,4,8,6.09l.06,0c-1.41-3-2.72-6.12-3.88-9.25L144,72.72l6.9-5.34L167,88.22Z"/></svg>